<mxfile host="app.diagrams.net" modified="2022-03-17T08:00:04.765Z" agent="5.0 (Macintosh; Intel Mac OS X 10_15_7) AppleWebKit/537.36 (KHTML, like Gecko) Chrome/99.0.4844.51 Safari/537.36" etag="idWjDkIhdN3SER6rPhS-" version="17.1.3" type="github" pages="2">
  <diagram id="kgpKYQtTHZ0yAKxKKP6v" name="按时发出">
    <mxGraphModel dx="946" dy="487" grid="1" gridSize="10" guides="1" tooltips="1" connect="1" arrows="1" fold="1" page="1" pageScale="1" pageWidth="827" pageHeight="1169" background="#FFFFFF" math="0" shadow="0">
      <root>
        <mxCell id="0" />
        <mxCell id="1" parent="0" />
        <mxCell id="3nuBFxr9cyL0pnOWT2aG-1" value="EV" style="shape=umlLifeline;perimeter=lifelinePerimeter;container=1;collapsible=0;recursiveResize=0;rounded=0;shadow=0;strokeWidth=1;" parent="1" vertex="1">
          <mxGeometry y="80" width="100" height="1080" as="geometry" />
        </mxCell>
        <mxCell id="3nuBFxr9cyL0pnOWT2aG-2" value="" style="points=[];perimeter=orthogonalPerimeter;rounded=0;shadow=0;strokeWidth=1;" parent="3nuBFxr9cyL0pnOWT2aG-1" vertex="1">
          <mxGeometry x="45" y="60" width="10" height="980" as="geometry" />
        </mxCell>
        <object label="" custom="guaiwuai" placeholders="1" id="u33PJABIVeBGlyHbXben-40">
          <mxCell style="endArrow=classic;html=1;rounded=0;" parent="3nuBFxr9cyL0pnOWT2aG-1" edge="1">
            <mxGeometry width="50" height="50" relative="1" as="geometry">
              <mxPoint x="55" y="860" as="sourcePoint" />
              <mxPoint x="55" y="880" as="targetPoint" />
              <Array as="points">
                <mxPoint x="95" y="860" />
                <mxPoint x="95" y="880" />
              </Array>
            </mxGeometry>
          </mxCell>
        </object>
        <object label="" custom="guaiwuai" placeholders="1" id="u33PJABIVeBGlyHbXben-51">
          <mxCell style="endArrow=classic;html=1;rounded=0;" parent="3nuBFxr9cyL0pnOWT2aG-1" edge="1">
            <mxGeometry width="50" height="50" relative="1" as="geometry">
              <mxPoint x="55" y="150" as="sourcePoint" />
              <mxPoint x="55" y="170" as="targetPoint" />
              <Array as="points">
                <mxPoint x="95" y="150" />
                <mxPoint x="95" y="170" />
              </Array>
            </mxGeometry>
          </mxCell>
        </object>
        <object label="" custom="guaiwuai" placeholders="1" id="u33PJABIVeBGlyHbXben-52">
          <mxCell style="endArrow=classic;html=1;rounded=0;" parent="3nuBFxr9cyL0pnOWT2aG-1" edge="1">
            <mxGeometry width="50" height="50" relative="1" as="geometry">
              <mxPoint x="55" y="979" as="sourcePoint" />
              <mxPoint x="55" y="999" as="targetPoint" />
              <Array as="points">
                <mxPoint x="95" y="979" />
                <mxPoint x="95" y="999" />
              </Array>
            </mxGeometry>
          </mxCell>
        </object>
        <mxCell id="3nuBFxr9cyL0pnOWT2aG-5" value="SignalUtils" style="shape=umlLifeline;perimeter=lifelinePerimeter;container=1;collapsible=0;recursiveResize=0;rounded=0;shadow=0;strokeWidth=1;" parent="1" vertex="1">
          <mxGeometry x="350" y="80" width="100" height="1080" as="geometry" />
        </mxCell>
        <mxCell id="3nuBFxr9cyL0pnOWT2aG-6" value="" style="points=[];perimeter=orthogonalPerimeter;rounded=0;shadow=0;strokeWidth=1;" parent="3nuBFxr9cyL0pnOWT2aG-5" vertex="1">
          <mxGeometry x="45" y="103" width="10" height="685" as="geometry" />
        </mxCell>
        <mxCell id="We_G-KZyb0YQPLkmT-2E-84" value="" style="html=1;verticalAlign=bottom;endArrow=open;dashed=1;endSize=8;rounded=0;labelBackgroundColor=none;fontFamily=Verdana;fontSize=12;fontColor=#000000;" parent="3nuBFxr9cyL0pnOWT2aG-5" edge="1">
          <mxGeometry relative="1" as="geometry">
            <mxPoint x="60" y="298" as="sourcePoint" />
            <mxPoint x="60" y="318" as="targetPoint" />
            <Array as="points">
              <mxPoint x="95" y="298" />
              <mxPoint x="95" y="318" />
            </Array>
          </mxGeometry>
        </mxCell>
        <object label="" custom="guaiwuai" placeholders="1" id="-BcTEHxaipuHjrKjKRAh-2">
          <mxCell style="endArrow=classic;html=1;rounded=0;" parent="3nuBFxr9cyL0pnOWT2aG-5" edge="1">
            <mxGeometry width="50" height="50" relative="1" as="geometry">
              <mxPoint x="60" y="238" as="sourcePoint" />
              <mxPoint x="60" y="258" as="targetPoint" />
              <Array as="points">
                <mxPoint x="100" y="238" />
                <mxPoint x="100" y="258" />
              </Array>
            </mxGeometry>
          </mxCell>
        </object>
        <object label="" custom="guaiwuai" placeholders="1" id="u33PJABIVeBGlyHbXben-1">
          <mxCell style="endArrow=classic;html=1;rounded=0;" parent="3nuBFxr9cyL0pnOWT2aG-5" edge="1">
            <mxGeometry width="50" height="50" relative="1" as="geometry">
              <mxPoint x="55.00000000000023" y="138" as="sourcePoint" />
              <mxPoint x="55.00000000000023" y="158" as="targetPoint" />
              <Array as="points">
                <mxPoint x="95" y="138" />
                <mxPoint x="95" y="158" />
              </Array>
            </mxGeometry>
          </mxCell>
        </object>
        <mxCell id="u33PJABIVeBGlyHbXben-8" value="" style="html=1;verticalAlign=bottom;endArrow=open;dashed=1;endSize=8;rounded=0;labelBackgroundColor=none;fontFamily=Verdana;fontSize=12;fontColor=#000000;" parent="3nuBFxr9cyL0pnOWT2aG-5" edge="1">
          <mxGeometry relative="1" as="geometry">
            <mxPoint x="62" y="403" as="sourcePoint" />
            <mxPoint x="62" y="423" as="targetPoint" />
            <Array as="points">
              <mxPoint x="97" y="403" />
              <mxPoint x="97" y="423" />
            </Array>
          </mxGeometry>
        </mxCell>
        <mxCell id="u33PJABIVeBGlyHbXben-11" value="" style="html=1;verticalAlign=bottom;endArrow=open;dashed=1;endSize=8;rounded=0;labelBackgroundColor=none;fontFamily=Verdana;fontSize=12;fontColor=#000000;" parent="3nuBFxr9cyL0pnOWT2aG-5" edge="1">
          <mxGeometry relative="1" as="geometry">
            <mxPoint x="57" y="468" as="sourcePoint" />
            <mxPoint x="57" y="488" as="targetPoint" />
            <Array as="points">
              <mxPoint x="92" y="468" />
              <mxPoint x="92" y="488" />
            </Array>
          </mxGeometry>
        </mxCell>
        <mxCell id="u33PJABIVeBGlyHbXben-15" value="" style="html=1;verticalAlign=bottom;endArrow=open;dashed=1;endSize=8;rounded=0;labelBackgroundColor=none;fontFamily=Verdana;fontSize=12;fontColor=#000000;" parent="3nuBFxr9cyL0pnOWT2aG-5" edge="1">
          <mxGeometry relative="1" as="geometry">
            <mxPoint x="62" y="578" as="sourcePoint" />
            <mxPoint x="62" y="598" as="targetPoint" />
            <Array as="points">
              <mxPoint x="97" y="578" />
              <mxPoint x="97" y="598" />
            </Array>
          </mxGeometry>
        </mxCell>
        <object label="" custom="guaiwuai" placeholders="1" id="u33PJABIVeBGlyHbXben-22">
          <mxCell style="endArrow=classic;html=1;rounded=0;" parent="3nuBFxr9cyL0pnOWT2aG-5" edge="1">
            <mxGeometry width="50" height="50" relative="1" as="geometry">
              <mxPoint x="60" y="698" as="sourcePoint" />
              <mxPoint x="60" y="718" as="targetPoint" />
              <Array as="points">
                <mxPoint x="100" y="698" />
                <mxPoint x="100" y="718" />
              </Array>
            </mxGeometry>
          </mxCell>
        </object>
        <mxCell id="u33PJABIVeBGlyHbXben-25" value="" style="endArrow=open;endSize=12;dashed=1;html=1;rounded=0;horizontal=1;fontColor=default;labelBackgroundColor=#00CCCC;fillColor=#f8cecc;strokeColor=#b85450;strokeWidth=2;dashPattern=1 1;entryX=-0.314;entryY=0.332;entryDx=0;entryDy=0;entryPerimeter=0;" parent="3nuBFxr9cyL0pnOWT2aG-5" target="u33PJABIVeBGlyHbXben-31" edge="1">
          <mxGeometry x="-0.0368" y="-80" width="160" relative="1" as="geometry">
            <mxPoint x="41" y="296" as="sourcePoint" />
            <mxPoint x="44" y="661.7499999999998" as="targetPoint" />
            <Array as="points">
              <mxPoint x="11" y="296" />
              <mxPoint x="10" y="666" />
            </Array>
            <mxPoint y="1" as="offset" />
          </mxGeometry>
        </mxCell>
        <mxCell id="u33PJABIVeBGlyHbXben-26" value="" style="endArrow=open;endSize=12;dashed=1;html=1;rounded=0;fillColor=#f8cecc;strokeColor=#b85450;strokeWidth=2;dashPattern=1 1;" parent="3nuBFxr9cyL0pnOWT2aG-5" edge="1">
          <mxGeometry width="160" relative="1" as="geometry">
            <mxPoint x="45" y="466" as="sourcePoint" />
            <mxPoint x="10" y="465" as="targetPoint" />
          </mxGeometry>
        </mxCell>
        <mxCell id="u33PJABIVeBGlyHbXben-30" value="" style="points=[];perimeter=orthogonalPerimeter;rounded=0;shadow=0;strokeWidth=1;fillColor=#dae8fc;strokeColor=#6c8ebf;" parent="3nuBFxr9cyL0pnOWT2aG-5" vertex="1">
          <mxGeometry x="50" y="508" width="10" height="100" as="geometry" />
        </mxCell>
        <mxCell id="u33PJABIVeBGlyHbXben-31" value="" style="points=[];perimeter=orthogonalPerimeter;rounded=0;shadow=0;strokeWidth=1;fillColor=#dae8fc;strokeColor=#6c8ebf;" parent="3nuBFxr9cyL0pnOWT2aG-5" vertex="1">
          <mxGeometry x="50" y="638" width="10" height="90" as="geometry" />
        </mxCell>
        <object label="" custom="guaiwuai" placeholders="1" id="u33PJABIVeBGlyHbXben-34">
          <mxCell style="endArrow=classic;html=1;rounded=0;" parent="3nuBFxr9cyL0pnOWT2aG-5" edge="1">
            <mxGeometry width="50" height="50" relative="1" as="geometry">
              <mxPoint x="55" y="748" as="sourcePoint" />
              <mxPoint x="55" y="768" as="targetPoint" />
              <Array as="points">
                <mxPoint x="95" y="748" />
                <mxPoint x="95" y="768" />
              </Array>
            </mxGeometry>
          </mxCell>
        </object>
        <mxCell id="We_G-KZyb0YQPLkmT-2E-6" value="FordEVSDK" style="shape=umlLifeline;perimeter=lifelinePerimeter;container=1;collapsible=0;recursiveResize=0;rounded=0;shadow=0;strokeWidth=1;" parent="1" vertex="1">
          <mxGeometry x="740" y="80" width="100" height="1080" as="geometry" />
        </mxCell>
        <mxCell id="We_G-KZyb0YQPLkmT-2E-7" value="" style="points=[];perimeter=orthogonalPerimeter;rounded=0;shadow=0;strokeWidth=1;" parent="We_G-KZyb0YQPLkmT-2E-6" vertex="1">
          <mxGeometry x="45" y="70" width="10" height="970" as="geometry" />
        </mxCell>
        <mxCell id="We_G-KZyb0YQPLkmT-2E-46" value="&lt;span style=&quot;font-size: 11px ; background-color: rgb(255 , 255 , 255) ; line-height: 1.2&quot;&gt;&lt;font face=&quot;Helvetica&quot; style=&quot;line-height: 1&quot;&gt;sendDepartComfortRq(List sendList)&lt;/font&gt;&lt;/span&gt;" style="text;html=1;strokeColor=none;fillColor=none;align=center;verticalAlign=middle;whiteSpace=wrap;rounded=0;labelBackgroundColor=none;fontFamily=Verdana;fontColor=default;" parent="1" vertex="1">
          <mxGeometry x="90" y="165" width="220" height="25" as="geometry" />
        </mxCell>
        <mxCell id="We_G-KZyb0YQPLkmT-2E-49" value="" style="endArrow=classic;html=1;rounded=0;labelBackgroundColor=none;fontFamily=Helvetica;fontColor=default;" parent="1" edge="1">
          <mxGeometry width="50" height="50" relative="1" as="geometry">
            <mxPoint x="405.0000000000002" y="286" as="sourcePoint" />
            <mxPoint x="785" y="286" as="targetPoint" />
            <Array as="points">
              <mxPoint x="575" y="286" />
            </Array>
          </mxGeometry>
        </mxCell>
        <mxCell id="We_G-KZyb0YQPLkmT-2E-53" value="&lt;span style=&quot;font-family: &amp;quot;helvetica&amp;quot; ; font-size: 11px&quot;&gt;Add DepartComfortsRqStrategy(sendList) (add three times, Ids 1,2,3)&lt;br&gt;&lt;/span&gt;&lt;span style=&quot;font-family: &amp;quot;helvetica&amp;quot; ; font-size: 11px&quot;&gt;and ClearDepartComfortStrategy to&amp;nbsp;&lt;/span&gt;&lt;span style=&quot;font-family: &amp;quot;helvetica&amp;quot; ; font-size: 11px&quot;&gt;List&lt;/span&gt;" style="text;html=1;strokeColor=none;fillColor=none;align=center;verticalAlign=middle;whiteSpace=wrap;rounded=0;labelBackgroundColor=none;fontFamily=Verdana;fontColor=default;" parent="1" vertex="1">
          <mxGeometry x="410" y="185" width="380" height="30" as="geometry" />
        </mxCell>
        <mxCell id="We_G-KZyb0YQPLkmT-2E-56" value="" style="endArrow=classic;html=1;rounded=0;labelBackgroundColor=none;fontFamily=Helvetica;fontColor=default;entryX=-0.05;entryY=0.018;entryDx=0;entryDy=0;entryPerimeter=0;exitX=1.2;exitY=0.097;exitDx=0;exitDy=0;exitPerimeter=0;" parent="1" target="3nuBFxr9cyL0pnOWT2aG-6" edge="1">
          <mxGeometry width="50" height="50" relative="1" as="geometry">
            <mxPoint x="55" y="193.42999999999995" as="sourcePoint" />
            <mxPoint x="393" y="194.44000000000005" as="targetPoint" />
          </mxGeometry>
        </mxCell>
        <mxCell id="We_G-KZyb0YQPLkmT-2E-61" value="&lt;span style=&quot;font-size: 11px ; background-color: rgb(255 , 255 , 255) ; line-height: 1.2&quot;&gt;&lt;font face=&quot;Helvetica&quot; style=&quot;line-height: 1&quot;&gt;saveDepartAndComforts(DepartComfortsRqStrategy(id=1)) chrgGoTUpdateRq=true&lt;/font&gt;&lt;/span&gt;" style="text;html=1;strokeColor=none;fillColor=none;align=center;verticalAlign=middle;whiteSpace=wrap;rounded=0;labelBackgroundColor=none;fontFamily=Verdana;fontColor=default;" parent="1" vertex="1">
          <mxGeometry x="400" y="258" width="350" height="25" as="geometry" />
        </mxCell>
        <mxCell id="We_G-KZyb0YQPLkmT-2E-74" value="&lt;span style=&quot;font-size: 11px ; background-color: rgb(255 , 255 , 255) ; line-height: 1.2&quot;&gt;&lt;font face=&quot;Helvetica&quot; style=&quot;line-height: 1&quot;&gt;delay 1200ms&lt;/font&gt;&lt;/span&gt;" style="text;html=1;strokeColor=none;fillColor=none;align=center;verticalAlign=middle;whiteSpace=wrap;rounded=0;labelBackgroundColor=none;fontFamily=Verdana;fontColor=default;" parent="1" vertex="1">
          <mxGeometry x="413" y="297.38" width="80" height="21.25" as="geometry" />
        </mxCell>
        <mxCell id="u33PJABIVeBGlyHbXben-2" value="&lt;span style=&quot;font-size: 11px ; background-color: rgb(255 , 255 , 255) ; line-height: 1.2&quot;&gt;&lt;font face=&quot;Helvetica&quot; style=&quot;line-height: 1&quot;&gt;needClearDepartTime = false，未收到匹配成功标志位&lt;/font&gt;&lt;/span&gt;" style="text;html=1;strokeColor=none;fillColor=none;align=center;verticalAlign=middle;whiteSpace=wrap;rounded=0;labelBackgroundColor=none;fontFamily=Verdana;fontColor=default;" parent="1" vertex="1">
          <mxGeometry x="410" y="348" width="300" height="30" as="geometry" />
        </mxCell>
        <mxCell id="u33PJABIVeBGlyHbXben-4" value="&lt;span style=&quot;font-size: 11px ; background-color: rgb(255 , 255 , 255) ; line-height: 1.2&quot;&gt;&lt;font face=&quot;Helvetica&quot; style=&quot;line-height: 1&quot;&gt;saveDepartAndComforts(DepartComfortsRqStrategy(id=2)) chrgGoTUpdateRq=true&lt;/font&gt;&lt;/span&gt;" style="text;html=1;strokeColor=none;fillColor=none;align=center;verticalAlign=middle;whiteSpace=wrap;rounded=0;labelBackgroundColor=none;fontFamily=Verdana;fontColor=default;" parent="1" vertex="1">
          <mxGeometry x="400" y="418" width="350" height="25" as="geometry" />
        </mxCell>
        <mxCell id="u33PJABIVeBGlyHbXben-5" value="" style="endArrow=open;endSize=12;dashed=1;html=1;rounded=0;exitX=1.229;exitY=0.84;exitDx=0;exitDy=0;exitPerimeter=0;" parent="1" edge="1">
          <mxGeometry width="160" relative="1" as="geometry">
            <mxPoint x="407.2900000000002" y="447.80000000000007" as="sourcePoint" />
            <mxPoint x="785" y="447.80000000000007" as="targetPoint" />
          </mxGeometry>
        </mxCell>
        <mxCell id="u33PJABIVeBGlyHbXben-7" value="&lt;span style=&quot;font-size: 11px ; background-color: rgb(255 , 255 , 255) ; line-height: 1.2&quot;&gt;&lt;font face=&quot;Helvetica&quot; style=&quot;line-height: 1&quot;&gt;delay 1200ms&lt;/font&gt;&lt;/span&gt;" style="text;html=1;strokeColor=none;fillColor=none;align=center;verticalAlign=middle;whiteSpace=wrap;rounded=0;labelBackgroundColor=none;fontFamily=Verdana;fontColor=default;" parent="1" vertex="1">
          <mxGeometry x="414" y="458" width="80" height="21.25" as="geometry" />
        </mxCell>
        <mxCell id="u33PJABIVeBGlyHbXben-10" value="&lt;span style=&quot;font-size: 11px ; background-color: rgb(255 , 255 , 255) ; line-height: 1.2&quot;&gt;&lt;font face=&quot;Helvetica&quot; style=&quot;line-height: 1&quot;&gt;needClearDepartTime = false，未收到匹配成功标志位&lt;/font&gt;&lt;/span&gt;" style="text;html=1;strokeColor=none;fillColor=none;align=center;verticalAlign=middle;whiteSpace=wrap;rounded=0;labelBackgroundColor=none;fontFamily=Verdana;fontColor=default;" parent="1" vertex="1">
          <mxGeometry x="412" y="519" width="300" height="30" as="geometry" />
        </mxCell>
        <mxCell id="u33PJABIVeBGlyHbXben-12" value="&lt;span style=&quot;font-size: 11px ; background-color: rgb(255 , 255 , 255) ; line-height: 1.2&quot;&gt;&lt;font face=&quot;Helvetica&quot; style=&quot;line-height: 1&quot;&gt;saveDepartAndComforts(DepartComfortsRqStrategy(id=3)) chrgGoTUpdateRq=true&lt;/font&gt;&lt;/span&gt;" style="text;html=1;strokeColor=none;fillColor=none;align=center;verticalAlign=middle;whiteSpace=wrap;rounded=0;labelBackgroundColor=none;fontFamily=Verdana;fontColor=default;" parent="1" vertex="1">
          <mxGeometry x="400" y="588" width="350" height="25" as="geometry" />
        </mxCell>
        <mxCell id="u33PJABIVeBGlyHbXben-13" value="" style="endArrow=open;endSize=12;dashed=1;html=1;rounded=0;exitX=1.229;exitY=0.84;exitDx=0;exitDy=0;exitPerimeter=0;" parent="1" edge="1">
          <mxGeometry width="160" relative="1" as="geometry">
            <mxPoint x="409.99999999999994" y="625.0000000000002" as="sourcePoint" />
            <mxPoint x="787.7099999999996" y="625.0000000000002" as="targetPoint" />
          </mxGeometry>
        </mxCell>
        <mxCell id="u33PJABIVeBGlyHbXben-14" value="&lt;span style=&quot;font-size: 11px ; background-color: rgb(255 , 255 , 255) ; line-height: 1.2&quot;&gt;&lt;font face=&quot;Helvetica&quot; style=&quot;line-height: 1&quot;&gt;delay 1200ms&lt;/font&gt;&lt;/span&gt;" style="text;html=1;strokeColor=none;fillColor=none;align=center;verticalAlign=middle;whiteSpace=wrap;rounded=0;labelBackgroundColor=none;fontFamily=Verdana;fontColor=default;" parent="1" vertex="1">
          <mxGeometry x="414" y="635" width="80" height="21.25" as="geometry" />
        </mxCell>
        <mxCell id="u33PJABIVeBGlyHbXben-16" value="&lt;span style=&quot;font-size: 11px ; background-color: rgb(255 , 255 , 255) ; line-height: 1.2&quot;&gt;&lt;font face=&quot;Helvetica&quot; style=&quot;line-height: 1&quot;&gt;saveDepartAndComforts(ClearDepartComfortStrategy)&amp;nbsp;&amp;nbsp;&lt;br&gt;chrgGoTUpdateRq=false&lt;br&gt;&lt;/font&gt;&lt;/span&gt;" style="text;html=1;strokeColor=none;fillColor=none;align=center;verticalAlign=middle;whiteSpace=wrap;rounded=0;labelBackgroundColor=none;fontFamily=Verdana;fontColor=default;" parent="1" vertex="1">
          <mxGeometry x="420" y="712" width="300" height="30" as="geometry" />
        </mxCell>
        <mxCell id="u33PJABIVeBGlyHbXben-17" value="" style="endArrow=classic;html=1;rounded=0;labelBackgroundColor=none;fontFamily=Helvetica;fontColor=default;exitX=1.053;exitY=0.21;exitDx=0;exitDy=0;exitPerimeter=0;" parent="1" edge="1">
          <mxGeometry width="50" height="50" relative="1" as="geometry">
            <mxPoint x="410.5300000000002" y="742.9000000000001" as="sourcePoint" />
            <mxPoint x="784" y="744" as="targetPoint" />
            <Array as="points">
              <mxPoint x="585" y="744" />
            </Array>
          </mxGeometry>
        </mxCell>
        <mxCell id="u33PJABIVeBGlyHbXben-20" value="&lt;span style=&quot;font-size: 11px ; background-color: rgb(255 , 255 , 255) ; line-height: 1.2&quot;&gt;&lt;font face=&quot;Helvetica&quot; style=&quot;line-height: 1&quot;&gt;delay 100ms&lt;/font&gt;&lt;/span&gt;" style="text;html=1;strokeColor=none;fillColor=none;align=center;verticalAlign=middle;whiteSpace=wrap;rounded=0;labelBackgroundColor=none;fontFamily=Verdana;fontColor=default;" parent="1" vertex="1">
          <mxGeometry x="408" y="753" width="90" height="20" as="geometry" />
        </mxCell>
        <mxCell id="u33PJABIVeBGlyHbXben-27" value="&lt;span style=&quot;font-size: 11px ; background-color: rgb(255 , 255 , 255)&quot;&gt;needClearDepartTime = true&lt;/span&gt;" style="text;html=1;strokeColor=none;fillColor=none;align=center;verticalAlign=middle;whiteSpace=wrap;rounded=0;fontColor=default;" parent="1" vertex="1">
          <mxGeometry x="190" y="530" width="160" height="30" as="geometry" />
        </mxCell>
        <mxCell id="3nuBFxr9cyL0pnOWT2aG-4" value="" style="points=[];perimeter=orthogonalPerimeter;rounded=0;shadow=0;strokeWidth=1;fillColor=#dae8fc;strokeColor=#6c8ebf;" parent="1" vertex="1">
          <mxGeometry x="400" y="258" width="10" height="90" as="geometry" />
        </mxCell>
        <mxCell id="u33PJABIVeBGlyHbXben-29" value="" style="points=[];perimeter=orthogonalPerimeter;rounded=0;shadow=0;strokeWidth=1;fillColor=#dae8fc;strokeColor=#6c8ebf;" parent="1" vertex="1">
          <mxGeometry x="400" y="418" width="10" height="100" as="geometry" />
        </mxCell>
        <mxCell id="u33PJABIVeBGlyHbXben-33" value="" style="endArrow=classic;html=1;rounded=1;labelBackgroundColor=#00CCCC;labelBorderColor=#FF00FF;fontColor=default;strokeWidth=1;entryX=1.043;entryY=0.848;entryDx=0;entryDy=0;entryPerimeter=0;exitX=0.043;exitY=0.922;exitDx=0;exitDy=0;exitPerimeter=0;" parent="1" edge="1">
          <mxGeometry width="50" height="50" relative="1" as="geometry">
            <mxPoint x="785.4299999999998" y="901.6000000000001" as="sourcePoint" />
            <mxPoint x="55.429999999999836" y="900.2399999999998" as="targetPoint" />
          </mxGeometry>
        </mxCell>
        <mxCell id="u33PJABIVeBGlyHbXben-35" value="&lt;font face=&quot;Helvetica&quot;&gt;&lt;span style=&quot;font-size: 11px ; background-color: rgb(255 , 255 , 255)&quot;&gt;send finish&lt;/span&gt;&lt;/font&gt;" style="text;html=1;strokeColor=none;fillColor=none;align=center;verticalAlign=middle;whiteSpace=wrap;rounded=0;labelBackgroundColor=none;fontFamily=Verdana;fontColor=default;" parent="1" vertex="1">
          <mxGeometry x="404" y="808" width="90" height="20" as="geometry" />
        </mxCell>
        <mxCell id="u33PJABIVeBGlyHbXben-36" value="" style="endArrow=classic;html=1;rounded=0;labelBackgroundColor=none;fontFamily=Helvetica;fontColor=default;exitX=1.2;exitY=0.097;exitDx=0;exitDy=0;exitPerimeter=0;entryX=0.012;entryY=0.015;entryDx=0;entryDy=0;entryPerimeter=0;" parent="1" target="We_G-KZyb0YQPLkmT-2E-7" edge="1">
          <mxGeometry width="50" height="50" relative="1" as="geometry">
            <mxPoint x="56" y="163.98999999999995" as="sourcePoint" />
            <mxPoint x="780" y="164" as="targetPoint" />
          </mxGeometry>
        </mxCell>
        <mxCell id="u33PJABIVeBGlyHbXben-37" value="&lt;span style=&quot;font-size: 11px ; background-color: rgb(255 , 255 , 255) ; line-height: 1.2&quot;&gt;&lt;font face=&quot;Helvetica&quot; style=&quot;line-height: 1&quot;&gt;addIDepartAndComfortListener&amp;nbsp; &amp;nbsp;register&lt;/font&gt;&lt;/span&gt;" style="text;html=1;strokeColor=none;fillColor=none;align=center;verticalAlign=middle;whiteSpace=wrap;rounded=0;labelBackgroundColor=none;fontFamily=Verdana;fontColor=default;" parent="1" vertex="1">
          <mxGeometry x="80" y="130" width="260" height="25" as="geometry" />
        </mxCell>
        <mxCell id="u33PJABIVeBGlyHbXben-39" value="&lt;span style=&quot;font-size: 11px ; background-color: rgb(255 , 255 , 255) ; line-height: 1.2&quot;&gt;&lt;font face=&quot;Helvetica&quot; style=&quot;line-height: 1&quot;&gt;return callback onDepartAndComfort(resultList)&amp;nbsp; &amp;nbsp;&lt;br&gt;&lt;/font&gt;&lt;/span&gt;" style="text;html=1;strokeColor=none;fillColor=none;align=center;verticalAlign=middle;whiteSpace=wrap;rounded=0;labelBackgroundColor=none;fontFamily=Verdana;fontColor=default;" parent="1" vertex="1">
          <mxGeometry x="400" y="870" width="390" height="25" as="geometry" />
        </mxCell>
        <mxCell id="u33PJABIVeBGlyHbXben-41" value="&lt;font face=&quot;Helvetica&quot;&gt;&lt;span style=&quot;font-size: 11px&quot;&gt;match sendList and resultList&lt;/span&gt;&lt;/font&gt;" style="text;html=1;strokeColor=none;fillColor=none;align=center;verticalAlign=middle;whiteSpace=wrap;rounded=0;labelBackgroundColor=none;fontFamily=Verdana;fontColor=default;" parent="1" vertex="1">
          <mxGeometry x="60" y="920" width="180" height="20" as="geometry" />
        </mxCell>
        <object label="" custom="guaiwuai" placeholders="1" id="u33PJABIVeBGlyHbXben-42">
          <mxCell style="endArrow=classic;html=1;rounded=0;" parent="1" edge="1">
            <mxGeometry width="50" height="50" relative="1" as="geometry">
              <mxPoint x="55" y="990" as="sourcePoint" />
              <mxPoint x="55" y="1010" as="targetPoint" />
              <Array as="points">
                <mxPoint x="95" y="990" />
                <mxPoint x="95" y="1010" />
              </Array>
            </mxGeometry>
          </mxCell>
        </object>
        <mxCell id="u33PJABIVeBGlyHbXben-43" value="&lt;font face=&quot;Helvetica&quot;&gt;&lt;span style=&quot;font-size: 11px&quot;&gt;match ok，关闭计时器，提示成功&lt;/span&gt;&lt;/font&gt;" style="text;html=1;strokeColor=none;fillColor=none;align=center;verticalAlign=middle;whiteSpace=wrap;rounded=0;labelBackgroundColor=none;fontFamily=Verdana;fontColor=default;" parent="1" vertex="1">
          <mxGeometry x="70" y="970" width="190" height="20" as="geometry" />
        </mxCell>
        <mxCell id="u33PJABIVeBGlyHbXben-47" value="" style="curved=1;endArrow=classic;html=1;rounded=1;labelBackgroundColor=#00CCCC;labelBorderColor=#FF00FF;fontColor=default;strokeWidth=1;dashed=1;" parent="1" source="u33PJABIVeBGlyHbXben-43" target="u33PJABIVeBGlyHbXben-27" edge="1">
          <mxGeometry width="50" height="50" relative="1" as="geometry">
            <mxPoint x="210" y="1040" as="sourcePoint" />
            <mxPoint x="260" y="990" as="targetPoint" />
            <Array as="points">
              <mxPoint x="160" y="1000" />
              <mxPoint x="210" y="990" />
            </Array>
          </mxGeometry>
        </mxCell>
        <mxCell id="u33PJABIVeBGlyHbXben-50" value="&lt;font face=&quot;Helvetica&quot;&gt;&lt;span style=&quot;font-size: 11px&quot;&gt;5s倒计时&lt;/span&gt;&lt;/font&gt;" style="text;html=1;strokeColor=none;fillColor=none;align=center;verticalAlign=middle;whiteSpace=wrap;rounded=0;labelBackgroundColor=none;fontFamily=Verdana;fontColor=default;" parent="1" vertex="1">
          <mxGeometry x="40" y="215" width="180" height="20" as="geometry" />
        </mxCell>
        <mxCell id="u33PJABIVeBGlyHbXben-54" value="&lt;font face=&quot;Helvetica&quot;&gt;&lt;span style=&quot;font-size: 11px&quot;&gt;5s结束，未对比成功，提示失败&lt;/span&gt;&lt;/font&gt;" style="text;html=1;strokeColor=none;fillColor=none;align=center;verticalAlign=middle;whiteSpace=wrap;rounded=0;labelBackgroundColor=none;fontFamily=Verdana;fontColor=default;" parent="1" vertex="1">
          <mxGeometry x="70" y="1030" width="180" height="20" as="geometry" />
        </mxCell>
        <mxCell id="oxVtvyuFJJ44SYQJUMJw-1" value="&lt;h1&gt;&lt;br&gt;&lt;/h1&gt;" style="text;html=1;strokeColor=none;fillColor=none;spacing=5;spacingTop=-20;whiteSpace=wrap;overflow=hidden;rounded=0;" vertex="1" parent="1">
          <mxGeometry x="510" y="30" width="190" height="120" as="geometry" />
        </mxCell>
        <mxCell id="oxVtvyuFJJ44SYQJUMJw-2" value="" style="shape=mxgraph.bpmn.data;labelPosition=center;verticalLabelPosition=bottom;align=center;verticalAlign=top;whiteSpace=wrap;size=13;html=1;fillColor=#fff2cc;strokeColor=#d6b656;" vertex="1" parent="1">
          <mxGeometry x="485" y="20" width="220" height="110" as="geometry" />
        </mxCell>
        <mxCell id="oxVtvyuFJJ44SYQJUMJw-3" value="添加3个DepartComfortsRqStrategy&#xa;和1个ClearDepartComfortStrategy&#xa;每个DepartComfortsRqStrategy中&#xa;包含send DepartComforts和delay处理，&#xa;ClearDepartComfortStrategy用来设置&#xa;复位更新标志位" style="text;strokeColor=none;fillColor=none;align=center;verticalAlign=middle;rounded=0;labelBackgroundColor=none;" vertex="1" parent="1">
          <mxGeometry x="485" y="50" width="220" height="50" as="geometry" />
        </mxCell>
        <mxCell id="oxVtvyuFJJ44SYQJUMJw-4" value="" style="endArrow=none;html=1;rounded=0;entryX=0.473;entryY=1;entryDx=0;entryDy=0;entryPerimeter=0;" edge="1" parent="1" target="oxVtvyuFJJ44SYQJUMJw-2">
          <mxGeometry width="50" height="50" relative="1" as="geometry">
            <mxPoint x="570" y="190" as="sourcePoint" />
            <mxPoint x="620" y="140" as="targetPoint" />
          </mxGeometry>
        </mxCell>
        <mxCell id="vOnjR2fJCondQJK2BBn4-1" value="" style="shape=mxgraph.bpmn.data;labelPosition=center;verticalLabelPosition=bottom;align=center;verticalAlign=top;whiteSpace=wrap;size=13;html=1;fillColor=#fff2cc;strokeColor=#d6b656;" vertex="1" parent="1">
          <mxGeometry x="120" y="410" width="185" height="100" as="geometry" />
        </mxCell>
        <mxCell id="vOnjR2fJCondQJK2BBn4-2" value="每帧数据发送完，根据标志位&lt;span style=&quot;font-size: 11px ; text-align: center&quot;&gt;needClearDepartTime&lt;/span&gt;判断是&lt;br&gt;否比对成功，提前发送完成时，移除其他数据帧，更新标志复位" style="text;strokeColor=none;fillColor=none;align=left;verticalAlign=middle;rounded=0;whiteSpace=wrap;html=1;" vertex="1" parent="1">
          <mxGeometry x="125" y="429" width="175" height="62" as="geometry" />
        </mxCell>
        <mxCell id="vOnjR2fJCondQJK2BBn4-3" value="" style="endArrow=none;html=1;rounded=0;entryX=0.395;entryY=1.005;entryDx=0;entryDy=0;entryPerimeter=0;" edge="1" parent="1">
          <mxGeometry width="50" height="50" relative="1" as="geometry">
            <mxPoint x="360" y="469" as="sourcePoint" />
            <mxPoint x="304.9950000000001" y="451.5" as="targetPoint" />
          </mxGeometry>
        </mxCell>
        <mxCell id="Lxb_p8OgJYg8C898FuBq-1" value="" style="shape=mxgraph.bpmn.data;labelPosition=center;verticalLabelPosition=bottom;align=center;verticalAlign=top;whiteSpace=wrap;size=13;html=1;fillColor=#fff2cc;strokeColor=#d6b656;" vertex="1" parent="1">
          <mxGeometry x="324" y="930" width="180" height="80" as="geometry" />
        </mxCell>
        <mxCell id="Lxb_p8OgJYg8C898FuBq-2" value="&lt;font face=&quot;Helvetica&quot; style=&quot;text-align: center&quot;&gt;&lt;span style=&quot;font-size: 11px&quot;&gt;判断&lt;/span&gt;&lt;/font&gt;&lt;span style=&quot;font-size: 11px ; text-align: center ; font-family: &amp;#34;helvetica&amp;#34;&quot;&gt;发送的数据集和返回的数据集是否完全相等&lt;/span&gt;" style="text;strokeColor=none;fillColor=none;align=left;verticalAlign=middle;rounded=0;whiteSpace=wrap;html=1;" vertex="1" parent="1">
          <mxGeometry x="329" y="939" width="175" height="62" as="geometry" />
        </mxCell>
        <mxCell id="Lxb_p8OgJYg8C898FuBq-3" value="" style="endArrow=none;html=1;rounded=0;exitX=1;exitY=0.5;exitDx=0;exitDy=0;" edge="1" parent="1" source="u33PJABIVeBGlyHbXben-41">
          <mxGeometry width="50" height="50" relative="1" as="geometry">
            <mxPoint x="230" y="980" as="sourcePoint" />
            <mxPoint x="320" y="970" as="targetPoint" />
          </mxGeometry>
        </mxCell>
      </root>
    </mxGraphModel>
  </diagram>
  <diagram id="k73rmPaJvsIZFfdMMrzq" name="预约充电">
    <mxGraphModel dx="946" dy="487" grid="1" gridSize="10" guides="1" tooltips="1" connect="1" arrows="1" fold="1" page="1" pageScale="1" pageWidth="827" pageHeight="1169" math="0" shadow="0">
      <root>
        <mxCell id="mEOgrYx-svWfFPejbQJb-0" />
        <mxCell id="mEOgrYx-svWfFPejbQJb-1" parent="mEOgrYx-svWfFPejbQJb-0" />
        <mxCell id="mEOgrYx-svWfFPejbQJb-2" value="按时出发" style="shape=umlLifeline;perimeter=lifelinePerimeter;container=1;collapsible=0;recursiveResize=0;rounded=0;shadow=0;strokeWidth=1;" parent="mEOgrYx-svWfFPejbQJb-1" vertex="1">
          <mxGeometry y="80" width="100" height="1080" as="geometry" />
        </mxCell>
        <mxCell id="mEOgrYx-svWfFPejbQJb-3" value="" style="points=[];perimeter=orthogonalPerimeter;rounded=0;shadow=0;strokeWidth=1;" parent="mEOgrYx-svWfFPejbQJb-2" vertex="1">
          <mxGeometry x="45" y="60" width="10" height="980" as="geometry" />
        </mxCell>
        <object label="" custom="guaiwuai" placeholders="1" id="mEOgrYx-svWfFPejbQJb-4">
          <mxCell style="endArrow=classic;html=1;rounded=0;" parent="mEOgrYx-svWfFPejbQJb-2" edge="1">
            <mxGeometry width="50" height="50" relative="1" as="geometry">
              <mxPoint x="55" y="860" as="sourcePoint" />
              <mxPoint x="55" y="880" as="targetPoint" />
              <Array as="points">
                <mxPoint x="95" y="860" />
                <mxPoint x="95" y="880" />
              </Array>
            </mxGeometry>
          </mxCell>
        </object>
        <object label="" custom="guaiwuai" placeholders="1" id="mEOgrYx-svWfFPejbQJb-5">
          <mxCell style="endArrow=classic;html=1;rounded=0;" parent="mEOgrYx-svWfFPejbQJb-2" edge="1">
            <mxGeometry width="50" height="50" relative="1" as="geometry">
              <mxPoint x="55" y="150" as="sourcePoint" />
              <mxPoint x="55" y="170" as="targetPoint" />
              <Array as="points">
                <mxPoint x="95" y="150" />
                <mxPoint x="95" y="170" />
              </Array>
            </mxGeometry>
          </mxCell>
        </object>
        <object label="" custom="guaiwuai" placeholders="1" id="mEOgrYx-svWfFPejbQJb-6">
          <mxCell style="endArrow=classic;html=1;rounded=0;" parent="mEOgrYx-svWfFPejbQJb-2" edge="1">
            <mxGeometry width="50" height="50" relative="1" as="geometry">
              <mxPoint x="55" y="979" as="sourcePoint" />
              <mxPoint x="55" y="999" as="targetPoint" />
              <Array as="points">
                <mxPoint x="95" y="979" />
                <mxPoint x="95" y="999" />
              </Array>
            </mxGeometry>
          </mxCell>
        </object>
        <mxCell id="mEOgrYx-svWfFPejbQJb-7" value="SignalUtils" style="shape=umlLifeline;perimeter=lifelinePerimeter;container=1;collapsible=0;recursiveResize=0;rounded=0;shadow=0;strokeWidth=1;" parent="mEOgrYx-svWfFPejbQJb-1" vertex="1">
          <mxGeometry x="350" y="80" width="100" height="1080" as="geometry" />
        </mxCell>
        <mxCell id="mEOgrYx-svWfFPejbQJb-8" value="" style="points=[];perimeter=orthogonalPerimeter;rounded=0;shadow=0;strokeWidth=1;" parent="mEOgrYx-svWfFPejbQJb-7" vertex="1">
          <mxGeometry x="45" y="103" width="10" height="685" as="geometry" />
        </mxCell>
        <mxCell id="mEOgrYx-svWfFPejbQJb-9" value="" style="html=1;verticalAlign=bottom;endArrow=open;dashed=1;endSize=8;rounded=0;labelBackgroundColor=none;fontFamily=Verdana;fontSize=12;fontColor=#000000;" parent="mEOgrYx-svWfFPejbQJb-7" edge="1">
          <mxGeometry relative="1" as="geometry">
            <mxPoint x="60" y="298" as="sourcePoint" />
            <mxPoint x="60" y="318" as="targetPoint" />
            <Array as="points">
              <mxPoint x="95" y="298" />
              <mxPoint x="95" y="318" />
            </Array>
          </mxGeometry>
        </mxCell>
        <object label="" custom="guaiwuai" placeholders="1" id="mEOgrYx-svWfFPejbQJb-10">
          <mxCell style="endArrow=classic;html=1;rounded=0;" parent="mEOgrYx-svWfFPejbQJb-7" edge="1">
            <mxGeometry width="50" height="50" relative="1" as="geometry">
              <mxPoint x="60" y="238" as="sourcePoint" />
              <mxPoint x="60" y="258" as="targetPoint" />
              <Array as="points">
                <mxPoint x="100" y="238" />
                <mxPoint x="100" y="258" />
              </Array>
            </mxGeometry>
          </mxCell>
        </object>
        <object label="" custom="guaiwuai" placeholders="1" id="mEOgrYx-svWfFPejbQJb-11">
          <mxCell style="endArrow=classic;html=1;rounded=0;" parent="mEOgrYx-svWfFPejbQJb-7" edge="1">
            <mxGeometry width="50" height="50" relative="1" as="geometry">
              <mxPoint x="55.00000000000023" y="138" as="sourcePoint" />
              <mxPoint x="55.00000000000023" y="158" as="targetPoint" />
              <Array as="points">
                <mxPoint x="95" y="138" />
                <mxPoint x="95" y="158" />
              </Array>
            </mxGeometry>
          </mxCell>
        </object>
        <mxCell id="mEOgrYx-svWfFPejbQJb-12" value="" style="html=1;verticalAlign=bottom;endArrow=open;dashed=1;endSize=8;rounded=0;labelBackgroundColor=none;fontFamily=Verdana;fontSize=12;fontColor=#000000;" parent="mEOgrYx-svWfFPejbQJb-7" edge="1">
          <mxGeometry relative="1" as="geometry">
            <mxPoint x="62" y="403" as="sourcePoint" />
            <mxPoint x="62" y="423" as="targetPoint" />
            <Array as="points">
              <mxPoint x="97" y="403" />
              <mxPoint x="97" y="423" />
            </Array>
          </mxGeometry>
        </mxCell>
        <mxCell id="mEOgrYx-svWfFPejbQJb-13" value="" style="html=1;verticalAlign=bottom;endArrow=open;dashed=1;endSize=8;rounded=0;labelBackgroundColor=none;fontFamily=Verdana;fontSize=12;fontColor=#000000;" parent="mEOgrYx-svWfFPejbQJb-7" edge="1">
          <mxGeometry relative="1" as="geometry">
            <mxPoint x="57" y="468" as="sourcePoint" />
            <mxPoint x="57" y="488" as="targetPoint" />
            <Array as="points">
              <mxPoint x="92" y="468" />
              <mxPoint x="92" y="488" />
            </Array>
          </mxGeometry>
        </mxCell>
        <mxCell id="mEOgrYx-svWfFPejbQJb-14" value="" style="html=1;verticalAlign=bottom;endArrow=open;dashed=1;endSize=8;rounded=0;labelBackgroundColor=none;fontFamily=Verdana;fontSize=12;fontColor=#000000;" parent="mEOgrYx-svWfFPejbQJb-7" edge="1">
          <mxGeometry relative="1" as="geometry">
            <mxPoint x="62" y="578" as="sourcePoint" />
            <mxPoint x="62" y="598" as="targetPoint" />
            <Array as="points">
              <mxPoint x="97" y="578" />
              <mxPoint x="97" y="598" />
            </Array>
          </mxGeometry>
        </mxCell>
        <object label="" custom="guaiwuai" placeholders="1" id="mEOgrYx-svWfFPejbQJb-15">
          <mxCell style="endArrow=classic;html=1;rounded=0;" parent="mEOgrYx-svWfFPejbQJb-7" edge="1">
            <mxGeometry width="50" height="50" relative="1" as="geometry">
              <mxPoint x="60" y="698" as="sourcePoint" />
              <mxPoint x="60" y="718" as="targetPoint" />
              <Array as="points">
                <mxPoint x="100" y="698" />
                <mxPoint x="100" y="718" />
              </Array>
            </mxGeometry>
          </mxCell>
        </object>
        <mxCell id="mEOgrYx-svWfFPejbQJb-16" value="" style="endArrow=open;endSize=12;dashed=1;html=1;rounded=0;horizontal=1;fontColor=default;labelBackgroundColor=#00CCCC;fillColor=#f8cecc;strokeColor=#b85450;strokeWidth=2;dashPattern=1 1;entryX=-0.314;entryY=0.332;entryDx=0;entryDy=0;entryPerimeter=0;" parent="mEOgrYx-svWfFPejbQJb-7" target="mEOgrYx-svWfFPejbQJb-19" edge="1">
          <mxGeometry x="-0.0368" y="-80" width="160" relative="1" as="geometry">
            <mxPoint x="41" y="296" as="sourcePoint" />
            <mxPoint x="44" y="661.7499999999998" as="targetPoint" />
            <Array as="points">
              <mxPoint x="11" y="296" />
              <mxPoint x="10" y="666" />
            </Array>
            <mxPoint y="1" as="offset" />
          </mxGeometry>
        </mxCell>
        <mxCell id="mEOgrYx-svWfFPejbQJb-17" value="" style="endArrow=open;endSize=12;dashed=1;html=1;rounded=0;fillColor=#f8cecc;strokeColor=#b85450;strokeWidth=2;dashPattern=1 1;" parent="mEOgrYx-svWfFPejbQJb-7" edge="1">
          <mxGeometry width="160" relative="1" as="geometry">
            <mxPoint x="45" y="466" as="sourcePoint" />
            <mxPoint x="10" y="465" as="targetPoint" />
          </mxGeometry>
        </mxCell>
        <mxCell id="mEOgrYx-svWfFPejbQJb-18" value="" style="points=[];perimeter=orthogonalPerimeter;rounded=0;shadow=0;strokeWidth=1;fillColor=#dae8fc;strokeColor=#6c8ebf;" parent="mEOgrYx-svWfFPejbQJb-7" vertex="1">
          <mxGeometry x="50" y="508" width="10" height="100" as="geometry" />
        </mxCell>
        <mxCell id="mEOgrYx-svWfFPejbQJb-19" value="" style="points=[];perimeter=orthogonalPerimeter;rounded=0;shadow=0;strokeWidth=1;fillColor=#dae8fc;strokeColor=#6c8ebf;" parent="mEOgrYx-svWfFPejbQJb-7" vertex="1">
          <mxGeometry x="50" y="638" width="10" height="90" as="geometry" />
        </mxCell>
        <object label="" custom="guaiwuai" placeholders="1" id="mEOgrYx-svWfFPejbQJb-20">
          <mxCell style="endArrow=classic;html=1;rounded=0;" parent="mEOgrYx-svWfFPejbQJb-7" edge="1">
            <mxGeometry width="50" height="50" relative="1" as="geometry">
              <mxPoint x="55" y="748" as="sourcePoint" />
              <mxPoint x="55" y="768" as="targetPoint" />
              <Array as="points">
                <mxPoint x="95" y="748" />
                <mxPoint x="95" y="768" />
              </Array>
            </mxGeometry>
          </mxCell>
        </object>
        <mxCell id="mEOgrYx-svWfFPejbQJb-21" value="FordEVSDK" style="shape=umlLifeline;perimeter=lifelinePerimeter;container=1;collapsible=0;recursiveResize=0;rounded=0;shadow=0;strokeWidth=1;" parent="mEOgrYx-svWfFPejbQJb-1" vertex="1">
          <mxGeometry x="740" y="80" width="100" height="1080" as="geometry" />
        </mxCell>
        <mxCell id="mEOgrYx-svWfFPejbQJb-22" value="" style="points=[];perimeter=orthogonalPerimeter;rounded=0;shadow=0;strokeWidth=1;" parent="mEOgrYx-svWfFPejbQJb-21" vertex="1">
          <mxGeometry x="45" y="70" width="10" height="970" as="geometry" />
        </mxCell>
        <mxCell id="mEOgrYx-svWfFPejbQJb-23" value="&lt;span style=&quot;font-size: 11px ; background-color: rgb(255 , 255 , 255) ; line-height: 1.2&quot;&gt;&lt;font face=&quot;Helvetica&quot; style=&quot;line-height: 1&quot;&gt;sendChargePlan(ChargePlan sendChangePlan)&lt;/font&gt;&lt;/span&gt;" style="text;html=1;strokeColor=none;fillColor=none;align=center;verticalAlign=middle;whiteSpace=wrap;rounded=0;labelBackgroundColor=none;fontFamily=Verdana;fontColor=default;" parent="mEOgrYx-svWfFPejbQJb-1" vertex="1">
          <mxGeometry x="90" y="165" width="270" height="25" as="geometry" />
        </mxCell>
        <mxCell id="mEOgrYx-svWfFPejbQJb-24" value="" style="endArrow=classic;html=1;rounded=0;labelBackgroundColor=none;fontFamily=Helvetica;fontColor=default;" parent="mEOgrYx-svWfFPejbQJb-1" edge="1">
          <mxGeometry width="50" height="50" relative="1" as="geometry">
            <mxPoint x="405.0000000000002" y="286" as="sourcePoint" />
            <mxPoint x="785" y="286" as="targetPoint" />
            <Array as="points">
              <mxPoint x="575" y="286" />
            </Array>
          </mxGeometry>
        </mxCell>
        <mxCell id="mEOgrYx-svWfFPejbQJb-25" value="&lt;font face=&quot;helvetica&quot;&gt;&lt;span style=&quot;font-size: 11px&quot;&gt;Add three&amp;nbsp;&lt;/span&gt;&lt;span style=&quot;font-size: 11px&quot;&gt;ChargePlanRqStrategy(&lt;/span&gt;&lt;/font&gt;&lt;span style=&quot;font-family: &amp;#34;helvetica&amp;#34; ; font-size: 11px ; background-color: rgb(255 , 255 , 255)&quot;&gt;sendChangePlan&lt;/span&gt;&lt;font face=&quot;helvetica&quot;&gt;&lt;span style=&quot;font-size: 11px&quot;&gt;)&amp;nbsp;&lt;/span&gt;&lt;/font&gt;&lt;br&gt;&lt;font face=&quot;helvetica&quot;&gt;&lt;span style=&quot;font-size: 11px&quot;&gt;and&amp;nbsp;&lt;/span&gt;&lt;/font&gt;&lt;span style=&quot;font-family: &amp;#34;helvetica&amp;#34; ; font-size: 11px&quot;&gt;ClearChargePlanStrategy&lt;/span&gt;&lt;font face=&quot;helvetica&quot;&gt;&lt;span style=&quot;font-size: 11px&quot;&gt;&amp;nbsp;to&amp;nbsp;&lt;/span&gt;&lt;/font&gt;&lt;span style=&quot;font-family: &amp;#34;helvetica&amp;#34; ; font-size: 11px&quot;&gt;List&lt;/span&gt;" style="text;html=1;strokeColor=none;fillColor=none;align=center;verticalAlign=middle;whiteSpace=wrap;rounded=0;labelBackgroundColor=none;fontFamily=Verdana;fontColor=default;" parent="mEOgrYx-svWfFPejbQJb-1" vertex="1">
          <mxGeometry x="351" y="186" width="419" height="30" as="geometry" />
        </mxCell>
        <mxCell id="mEOgrYx-svWfFPejbQJb-26" value="" style="endArrow=classic;html=1;rounded=0;labelBackgroundColor=none;fontFamily=Helvetica;fontColor=default;entryX=-0.05;entryY=0.018;entryDx=0;entryDy=0;entryPerimeter=0;exitX=1.2;exitY=0.097;exitDx=0;exitDy=0;exitPerimeter=0;" parent="mEOgrYx-svWfFPejbQJb-1" target="mEOgrYx-svWfFPejbQJb-8" edge="1">
          <mxGeometry width="50" height="50" relative="1" as="geometry">
            <mxPoint x="55" y="193.42999999999995" as="sourcePoint" />
            <mxPoint x="393" y="194.44000000000005" as="targetPoint" />
          </mxGeometry>
        </mxCell>
        <mxCell id="mEOgrYx-svWfFPejbQJb-27" value="&lt;span style=&quot;font-size: 11px ; background-color: rgb(255 , 255 , 255) ; line-height: 1.2&quot;&gt;&lt;font face=&quot;Helvetica&quot; style=&quot;line-height: 1&quot;&gt;sendChargePlanReq(&lt;span style=&quot;font-family: &amp;#34;helvetica&amp;#34; ; background-color: rgb(248 , 249 , 250)&quot;&gt;ChargePlanRqStrategy&lt;/span&gt;)&amp;nbsp;&lt;br&gt;&lt;span style=&quot;font-family: &amp;#34;helvetica&amp;#34; ; background-color: rgb(248 , 249 , 250)&quot;&gt;OnbChrgPrflUpdate_B_Rq&amp;nbsp;&lt;/span&gt;=true&lt;/font&gt;&lt;/span&gt;" style="text;html=1;strokeColor=none;fillColor=none;align=center;verticalAlign=middle;whiteSpace=wrap;rounded=0;labelBackgroundColor=none;fontFamily=Verdana;fontColor=default;" parent="mEOgrYx-svWfFPejbQJb-1" vertex="1">
          <mxGeometry x="400" y="258" width="350" height="25" as="geometry" />
        </mxCell>
        <mxCell id="mEOgrYx-svWfFPejbQJb-28" value="&lt;span style=&quot;font-size: 11px ; background-color: rgb(255 , 255 , 255) ; line-height: 1.2&quot;&gt;&lt;font face=&quot;Helvetica&quot; style=&quot;line-height: 1&quot;&gt;delay 1200ms&lt;/font&gt;&lt;/span&gt;" style="text;html=1;strokeColor=none;fillColor=none;align=center;verticalAlign=middle;whiteSpace=wrap;rounded=0;labelBackgroundColor=none;fontFamily=Verdana;fontColor=default;" parent="mEOgrYx-svWfFPejbQJb-1" vertex="1">
          <mxGeometry x="413" y="297.38" width="80" height="21.25" as="geometry" />
        </mxCell>
        <mxCell id="mEOgrYx-svWfFPejbQJb-29" value="&lt;span style=&quot;font-size: 11px ; background-color: rgb(255 , 255 , 255) ; line-height: 1.2&quot;&gt;&lt;font face=&quot;Helvetica&quot; style=&quot;line-height: 1&quot;&gt;needClearChargePlan = false，未收到匹配成功标志位&lt;/font&gt;&lt;/span&gt;" style="text;html=1;strokeColor=none;fillColor=none;align=center;verticalAlign=middle;whiteSpace=wrap;rounded=0;labelBackgroundColor=none;fontFamily=Verdana;fontColor=default;" parent="mEOgrYx-svWfFPejbQJb-1" vertex="1">
          <mxGeometry x="410" y="348" width="300" height="30" as="geometry" />
        </mxCell>
        <mxCell id="mEOgrYx-svWfFPejbQJb-30" value="&lt;span style=&quot;font-family: &amp;#34;helvetica&amp;#34; ; font-size: 11px ; background-color: rgb(255 , 255 , 255)&quot;&gt;sendChargePlanReq(&lt;/span&gt;&lt;span style=&quot;font-size: 11px ; font-family: &amp;#34;helvetica&amp;#34;&quot;&gt;ChargePlanRqStrategy&lt;/span&gt;&lt;span style=&quot;font-family: &amp;#34;helvetica&amp;#34; ; font-size: 11px ; background-color: rgb(255 , 255 , 255)&quot;&gt;)&amp;nbsp;&lt;/span&gt;&lt;br style=&quot;font-family: &amp;#34;helvetica&amp;#34; ; font-size: 11px ; background-color: rgb(255 , 255 , 255)&quot;&gt;&lt;span style=&quot;font-size: 11px ; font-family: &amp;#34;helvetica&amp;#34;&quot;&gt;OnbChrgPrflUpdate_B_Rq&amp;nbsp;&lt;/span&gt;&lt;span style=&quot;font-family: &amp;#34;helvetica&amp;#34; ; font-size: 11px ; background-color: rgb(255 , 255 , 255)&quot;&gt;=true&lt;/span&gt;" style="text;html=1;strokeColor=none;fillColor=none;align=center;verticalAlign=middle;whiteSpace=wrap;rounded=0;labelBackgroundColor=none;fontFamily=Verdana;fontColor=default;" parent="mEOgrYx-svWfFPejbQJb-1" vertex="1">
          <mxGeometry x="400" y="418" width="350" height="25" as="geometry" />
        </mxCell>
        <mxCell id="mEOgrYx-svWfFPejbQJb-31" value="" style="endArrow=open;endSize=12;dashed=1;html=1;rounded=0;exitX=1.229;exitY=0.84;exitDx=0;exitDy=0;exitPerimeter=0;" parent="mEOgrYx-svWfFPejbQJb-1" edge="1">
          <mxGeometry width="160" relative="1" as="geometry">
            <mxPoint x="407.2900000000002" y="447.80000000000007" as="sourcePoint" />
            <mxPoint x="785" y="447.80000000000007" as="targetPoint" />
          </mxGeometry>
        </mxCell>
        <mxCell id="mEOgrYx-svWfFPejbQJb-32" value="&lt;span style=&quot;font-size: 11px ; background-color: rgb(255 , 255 , 255) ; line-height: 1.2&quot;&gt;&lt;font face=&quot;Helvetica&quot; style=&quot;line-height: 1&quot;&gt;delay 1200ms&lt;/font&gt;&lt;/span&gt;" style="text;html=1;strokeColor=none;fillColor=none;align=center;verticalAlign=middle;whiteSpace=wrap;rounded=0;labelBackgroundColor=none;fontFamily=Verdana;fontColor=default;" parent="mEOgrYx-svWfFPejbQJb-1" vertex="1">
          <mxGeometry x="414" y="458" width="80" height="21.25" as="geometry" />
        </mxCell>
        <mxCell id="mEOgrYx-svWfFPejbQJb-33" value="&lt;span style=&quot;font-size: 11px ; background-color: rgb(255 , 255 , 255) ; line-height: 1.2&quot;&gt;&lt;font face=&quot;Helvetica&quot; style=&quot;line-height: 1&quot;&gt;needClearChargePlan = false，未收到匹配成功标志位&lt;/font&gt;&lt;/span&gt;" style="text;html=1;strokeColor=none;fillColor=none;align=center;verticalAlign=middle;whiteSpace=wrap;rounded=0;labelBackgroundColor=none;fontFamily=Verdana;fontColor=default;" parent="mEOgrYx-svWfFPejbQJb-1" vertex="1">
          <mxGeometry x="412" y="519" width="300" height="30" as="geometry" />
        </mxCell>
        <mxCell id="mEOgrYx-svWfFPejbQJb-34" value="&lt;span style=&quot;font-family: &amp;#34;helvetica&amp;#34; ; font-size: 11px ; background-color: rgb(255 , 255 , 255)&quot;&gt;sendChargePlanReq(&lt;/span&gt;&lt;span style=&quot;font-size: 11px ; font-family: &amp;#34;helvetica&amp;#34;&quot;&gt;ChargePlanRqStrategy&lt;/span&gt;&lt;span style=&quot;font-family: &amp;#34;helvetica&amp;#34; ; font-size: 11px ; background-color: rgb(255 , 255 , 255)&quot;&gt;)&amp;nbsp;&lt;/span&gt;&lt;br style=&quot;font-family: &amp;#34;helvetica&amp;#34; ; font-size: 11px ; background-color: rgb(255 , 255 , 255)&quot;&gt;&lt;span style=&quot;font-size: 11px ; font-family: &amp;#34;helvetica&amp;#34;&quot;&gt;OnbChrgPrflUpdate_B_Rq&amp;nbsp;&lt;/span&gt;&lt;span style=&quot;font-family: &amp;#34;helvetica&amp;#34; ; font-size: 11px ; background-color: rgb(255 , 255 , 255)&quot;&gt;=true&lt;/span&gt;" style="text;html=1;strokeColor=none;fillColor=none;align=center;verticalAlign=middle;whiteSpace=wrap;rounded=0;labelBackgroundColor=none;fontFamily=Verdana;fontColor=default;" parent="mEOgrYx-svWfFPejbQJb-1" vertex="1">
          <mxGeometry x="400" y="592" width="350" height="25" as="geometry" />
        </mxCell>
        <mxCell id="mEOgrYx-svWfFPejbQJb-35" value="" style="endArrow=open;endSize=12;dashed=1;html=1;rounded=0;exitX=1.229;exitY=0.84;exitDx=0;exitDy=0;exitPerimeter=0;" parent="mEOgrYx-svWfFPejbQJb-1" edge="1">
          <mxGeometry width="160" relative="1" as="geometry">
            <mxPoint x="410" y="625.0000000000002" as="sourcePoint" />
            <mxPoint x="787.7099999999996" y="625.0000000000002" as="targetPoint" />
          </mxGeometry>
        </mxCell>
        <mxCell id="mEOgrYx-svWfFPejbQJb-36" value="&lt;span style=&quot;font-size: 11px ; background-color: rgb(255 , 255 , 255) ; line-height: 1.2&quot;&gt;&lt;font face=&quot;Helvetica&quot; style=&quot;line-height: 1&quot;&gt;delay 1200ms&lt;/font&gt;&lt;/span&gt;" style="text;html=1;strokeColor=none;fillColor=none;align=center;verticalAlign=middle;whiteSpace=wrap;rounded=0;labelBackgroundColor=none;fontFamily=Verdana;fontColor=default;" parent="mEOgrYx-svWfFPejbQJb-1" vertex="1">
          <mxGeometry x="414" y="635" width="80" height="21.25" as="geometry" />
        </mxCell>
        <mxCell id="mEOgrYx-svWfFPejbQJb-37" value="&lt;span style=&quot;font-size: 11px ; background-color: rgb(255 , 255 , 255) ; line-height: 1.2&quot;&gt;&lt;font face=&quot;Helvetica&quot; style=&quot;line-height: 1&quot;&gt;&lt;span style=&quot;font-family: &amp;#34;helvetica&amp;#34;&quot;&gt;sendChargePlanReq&lt;/span&gt;(&lt;span style=&quot;font-family: &amp;#34;helvetica&amp;#34; ; background-color: rgb(248 , 249 , 250)&quot;&gt;ClearChargePlanStrategy&lt;/span&gt;)&amp;nbsp;&amp;nbsp;&lt;br&gt;&lt;span style=&quot;font-family: &amp;#34;helvetica&amp;#34; ; background-color: rgb(248 , 249 , 250)&quot;&gt;OnbChrgPrflUpdate_B_Rq&lt;/span&gt;=false&lt;br&gt;&lt;/font&gt;&lt;/span&gt;" style="text;html=1;strokeColor=none;fillColor=none;align=center;verticalAlign=middle;whiteSpace=wrap;rounded=0;labelBackgroundColor=none;fontFamily=Verdana;fontColor=default;" parent="mEOgrYx-svWfFPejbQJb-1" vertex="1">
          <mxGeometry x="420" y="711" width="300" height="30" as="geometry" />
        </mxCell>
        <mxCell id="mEOgrYx-svWfFPejbQJb-38" value="" style="endArrow=classic;html=1;rounded=0;labelBackgroundColor=none;fontFamily=Helvetica;fontColor=default;exitX=1.053;exitY=0.21;exitDx=0;exitDy=0;exitPerimeter=0;" parent="mEOgrYx-svWfFPejbQJb-1" edge="1">
          <mxGeometry width="50" height="50" relative="1" as="geometry">
            <mxPoint x="410.5300000000002" y="742.9000000000001" as="sourcePoint" />
            <mxPoint x="784" y="744" as="targetPoint" />
            <Array as="points">
              <mxPoint x="585" y="744" />
            </Array>
          </mxGeometry>
        </mxCell>
        <mxCell id="mEOgrYx-svWfFPejbQJb-39" value="&lt;span style=&quot;font-size: 11px ; background-color: rgb(255 , 255 , 255) ; line-height: 1.2&quot;&gt;&lt;font face=&quot;Helvetica&quot; style=&quot;line-height: 1&quot;&gt;delay 100ms&lt;/font&gt;&lt;/span&gt;" style="text;html=1;strokeColor=none;fillColor=none;align=center;verticalAlign=middle;whiteSpace=wrap;rounded=0;labelBackgroundColor=none;fontFamily=Verdana;fontColor=default;" parent="mEOgrYx-svWfFPejbQJb-1" vertex="1">
          <mxGeometry x="408" y="753" width="90" height="20" as="geometry" />
        </mxCell>
        <mxCell id="mEOgrYx-svWfFPejbQJb-40" value="&lt;span style=&quot;background-color: rgb(255 , 255 , 255)&quot;&gt;&lt;span style=&quot;font-size: 11px&quot;&gt;needClearChargePlan&amp;nbsp;= true&lt;/span&gt;&lt;/span&gt;" style="text;html=1;strokeColor=none;fillColor=none;align=center;verticalAlign=middle;whiteSpace=wrap;rounded=0;fontColor=default;" parent="mEOgrYx-svWfFPejbQJb-1" vertex="1">
          <mxGeometry x="190" y="530" width="160" height="30" as="geometry" />
        </mxCell>
        <mxCell id="mEOgrYx-svWfFPejbQJb-41" value="" style="points=[];perimeter=orthogonalPerimeter;rounded=0;shadow=0;strokeWidth=1;fillColor=#dae8fc;strokeColor=#6c8ebf;" parent="mEOgrYx-svWfFPejbQJb-1" vertex="1">
          <mxGeometry x="400" y="258" width="10" height="90" as="geometry" />
        </mxCell>
        <mxCell id="mEOgrYx-svWfFPejbQJb-42" value="" style="points=[];perimeter=orthogonalPerimeter;rounded=0;shadow=0;strokeWidth=1;fillColor=#dae8fc;strokeColor=#6c8ebf;" parent="mEOgrYx-svWfFPejbQJb-1" vertex="1">
          <mxGeometry x="400" y="418" width="10" height="100" as="geometry" />
        </mxCell>
        <mxCell id="mEOgrYx-svWfFPejbQJb-43" value="" style="endArrow=classic;html=1;rounded=1;labelBackgroundColor=#00CCCC;labelBorderColor=#FF00FF;fontColor=default;strokeWidth=1;entryX=1.043;entryY=0.848;entryDx=0;entryDy=0;entryPerimeter=0;exitX=0.043;exitY=0.922;exitDx=0;exitDy=0;exitPerimeter=0;" parent="mEOgrYx-svWfFPejbQJb-1" edge="1">
          <mxGeometry width="50" height="50" relative="1" as="geometry">
            <mxPoint x="785.4299999999998" y="901.6000000000001" as="sourcePoint" />
            <mxPoint x="55.429999999999836" y="900.2399999999998" as="targetPoint" />
          </mxGeometry>
        </mxCell>
        <mxCell id="mEOgrYx-svWfFPejbQJb-44" value="&lt;font face=&quot;Helvetica&quot;&gt;&lt;span style=&quot;font-size: 11px ; background-color: rgb(255 , 255 , 255)&quot;&gt;send finish&lt;/span&gt;&lt;/font&gt;" style="text;html=1;strokeColor=none;fillColor=none;align=center;verticalAlign=middle;whiteSpace=wrap;rounded=0;labelBackgroundColor=none;fontFamily=Verdana;fontColor=default;" parent="mEOgrYx-svWfFPejbQJb-1" vertex="1">
          <mxGeometry x="404" y="808" width="90" height="20" as="geometry" />
        </mxCell>
        <mxCell id="mEOgrYx-svWfFPejbQJb-45" value="" style="endArrow=classic;html=1;rounded=0;labelBackgroundColor=none;fontFamily=Helvetica;fontColor=default;exitX=1.2;exitY=0.097;exitDx=0;exitDy=0;exitPerimeter=0;entryX=0.012;entryY=0.015;entryDx=0;entryDy=0;entryPerimeter=0;" parent="mEOgrYx-svWfFPejbQJb-1" target="mEOgrYx-svWfFPejbQJb-22" edge="1">
          <mxGeometry width="50" height="50" relative="1" as="geometry">
            <mxPoint x="56" y="163.99" as="sourcePoint" />
            <mxPoint x="780" y="164" as="targetPoint" />
          </mxGeometry>
        </mxCell>
        <mxCell id="mEOgrYx-svWfFPejbQJb-46" value="&lt;span style=&quot;font-size: 11px ; background-color: rgb(255 , 255 , 255) ; line-height: 1.2&quot;&gt;&lt;font face=&quot;Helvetica&quot; style=&quot;line-height: 1&quot;&gt;register listener addIChargePlanRxListener&lt;/font&gt;&lt;/span&gt;" style="text;html=1;strokeColor=none;fillColor=none;align=center;verticalAlign=middle;whiteSpace=wrap;rounded=0;labelBackgroundColor=none;fontFamily=Verdana;fontColor=default;" parent="mEOgrYx-svWfFPejbQJb-1" vertex="1">
          <mxGeometry x="80" y="130" width="260" height="25" as="geometry" />
        </mxCell>
        <mxCell id="mEOgrYx-svWfFPejbQJb-47" value="&lt;span style=&quot;font-size: 11px ; background-color: rgb(255 , 255 , 255) ; line-height: 1.2&quot;&gt;&lt;font face=&quot;Helvetica&quot; style=&quot;line-height: 1&quot;&gt;return callback onChargePlant(resultList)&amp;nbsp; &amp;nbsp;&lt;br&gt;&lt;/font&gt;&lt;/span&gt;" style="text;html=1;strokeColor=none;fillColor=none;align=center;verticalAlign=middle;whiteSpace=wrap;rounded=0;labelBackgroundColor=none;fontFamily=Verdana;fontColor=default;" parent="mEOgrYx-svWfFPejbQJb-1" vertex="1">
          <mxGeometry x="17.5" y="870" width="390" height="25" as="geometry" />
        </mxCell>
        <mxCell id="mEOgrYx-svWfFPejbQJb-48" value="&lt;font face=&quot;Helvetica&quot;&gt;&lt;span style=&quot;font-size: 11px&quot;&gt;match&amp;nbsp;&lt;/span&gt;&lt;/font&gt;&lt;span style=&quot;font-family: &amp;#34;helvetica&amp;#34; ; font-size: 11px ; background-color: rgb(255 , 255 , 255)&quot;&gt;sendChargePlan&lt;/span&gt;&lt;font face=&quot;Helvetica&quot;&gt;&lt;span style=&quot;font-size: 11px&quot;&gt;&amp;nbsp;and resultList&lt;br&gt;&lt;/span&gt;&lt;/font&gt;&lt;font face=&quot;Helvetica&quot;&gt;&lt;span style=&quot;font-size: 11px&quot;&gt;&lt;br&gt;&lt;/span&gt;&lt;/font&gt;" style="text;html=1;strokeColor=none;fillColor=none;align=center;verticalAlign=middle;whiteSpace=wrap;rounded=0;labelBackgroundColor=none;fontFamily=Verdana;fontColor=default;" parent="mEOgrYx-svWfFPejbQJb-1" vertex="1">
          <mxGeometry x="60" y="930" width="240" height="20" as="geometry" />
        </mxCell>
        <object label="" custom="guaiwuai" placeholders="1" id="mEOgrYx-svWfFPejbQJb-49">
          <mxCell style="endArrow=classic;html=1;rounded=0;" parent="mEOgrYx-svWfFPejbQJb-1" edge="1">
            <mxGeometry width="50" height="50" relative="1" as="geometry">
              <mxPoint x="55" y="990" as="sourcePoint" />
              <mxPoint x="55" y="1010" as="targetPoint" />
              <Array as="points">
                <mxPoint x="95" y="990" />
                <mxPoint x="95" y="1010" />
              </Array>
            </mxGeometry>
          </mxCell>
        </object>
        <mxCell id="mEOgrYx-svWfFPejbQJb-50" value="&lt;font face=&quot;Helvetica&quot;&gt;&lt;span style=&quot;font-size: 11px&quot;&gt;match ok，关闭计时器，提示成功&lt;/span&gt;&lt;/font&gt;" style="text;html=1;strokeColor=none;fillColor=none;align=center;verticalAlign=middle;whiteSpace=wrap;rounded=0;labelBackgroundColor=none;fontFamily=Verdana;fontColor=default;" parent="mEOgrYx-svWfFPejbQJb-1" vertex="1">
          <mxGeometry x="80" y="970" width="190" height="20" as="geometry" />
        </mxCell>
        <mxCell id="mEOgrYx-svWfFPejbQJb-51" value="" style="curved=1;endArrow=classic;html=1;rounded=1;labelBackgroundColor=#00CCCC;labelBorderColor=#FF00FF;fontColor=default;strokeWidth=1;dashed=1;" parent="mEOgrYx-svWfFPejbQJb-1" source="mEOgrYx-svWfFPejbQJb-50" target="mEOgrYx-svWfFPejbQJb-40" edge="1">
          <mxGeometry width="50" height="50" relative="1" as="geometry">
            <mxPoint x="210" y="1040" as="sourcePoint" />
            <mxPoint x="260" y="990" as="targetPoint" />
            <Array as="points">
              <mxPoint x="160" y="1000" />
              <mxPoint x="210" y="990" />
            </Array>
          </mxGeometry>
        </mxCell>
        <mxCell id="mEOgrYx-svWfFPejbQJb-52" value="&lt;font face=&quot;Helvetica&quot;&gt;&lt;span style=&quot;font-size: 11px&quot;&gt;5s倒计时&lt;/span&gt;&lt;/font&gt;" style="text;html=1;strokeColor=none;fillColor=none;align=center;verticalAlign=middle;whiteSpace=wrap;rounded=0;labelBackgroundColor=none;fontFamily=Verdana;fontColor=default;" parent="mEOgrYx-svWfFPejbQJb-1" vertex="1">
          <mxGeometry x="40" y="215" width="180" height="20" as="geometry" />
        </mxCell>
        <mxCell id="mEOgrYx-svWfFPejbQJb-53" value="&lt;font face=&quot;Helvetica&quot;&gt;&lt;span style=&quot;font-size: 11px&quot;&gt;5s结束，未对比成功，提示失败&lt;/span&gt;&lt;/font&gt;" style="text;html=1;strokeColor=none;fillColor=none;align=center;verticalAlign=middle;whiteSpace=wrap;rounded=0;labelBackgroundColor=none;fontFamily=Verdana;fontColor=default;" parent="mEOgrYx-svWfFPejbQJb-1" vertex="1">
          <mxGeometry x="70" y="1030" width="180" height="20" as="geometry" />
        </mxCell>
        <mxCell id="mEOgrYx-svWfFPejbQJb-54" value="&lt;h1&gt;&lt;br&gt;&lt;/h1&gt;" style="text;html=1;strokeColor=none;fillColor=none;spacing=5;spacingTop=-20;whiteSpace=wrap;overflow=hidden;rounded=0;" parent="mEOgrYx-svWfFPejbQJb-1" vertex="1">
          <mxGeometry x="510" y="30" width="190" height="120" as="geometry" />
        </mxCell>
        <mxCell id="mEOgrYx-svWfFPejbQJb-64" value="" style="shape=mxgraph.bpmn.data;labelPosition=center;verticalLabelPosition=bottom;align=center;verticalAlign=top;whiteSpace=wrap;size=13;html=1;fillColor=#fff2cc;strokeColor=#d6b656;" parent="mEOgrYx-svWfFPejbQJb-1" vertex="1">
          <mxGeometry x="120" y="410" width="185" height="100" as="geometry" />
        </mxCell>
        <mxCell id="mEOgrYx-svWfFPejbQJb-66" value="每帧数据发送完，根据标志位needClearChargePlan判断是&lt;br&gt;否比对成功，提前发送完成时，移除其他数据帧，更新标志复位" style="text;strokeColor=none;fillColor=none;align=left;verticalAlign=middle;rounded=0;whiteSpace=wrap;html=1;" parent="mEOgrYx-svWfFPejbQJb-1" vertex="1">
          <mxGeometry x="125" y="429" width="175" height="62" as="geometry" />
        </mxCell>
        <mxCell id="mEOgrYx-svWfFPejbQJb-70" value="" style="endArrow=none;html=1;rounded=0;entryX=0.395;entryY=1.005;entryDx=0;entryDy=0;entryPerimeter=0;" parent="mEOgrYx-svWfFPejbQJb-1" edge="1">
          <mxGeometry width="50" height="50" relative="1" as="geometry">
            <mxPoint x="360" y="469" as="sourcePoint" />
            <mxPoint x="304.99500000000006" y="451.5" as="targetPoint" />
          </mxGeometry>
        </mxCell>
        <mxCell id="mEOgrYx-svWfFPejbQJb-71" value="" style="shape=mxgraph.bpmn.data;labelPosition=center;verticalLabelPosition=bottom;align=center;verticalAlign=top;whiteSpace=wrap;size=13;html=1;fillColor=#fff2cc;strokeColor=#d6b656;" parent="mEOgrYx-svWfFPejbQJb-1" vertex="1">
          <mxGeometry x="485" y="20" width="220" height="110" as="geometry" />
        </mxCell>
        <mxCell id="mEOgrYx-svWfFPejbQJb-72" value="添加3个ChargePlanRqStrategy&#xa;和1个ClearChargePlanStrategy&#xa;每个ChargePlanRqStrategy中&#xa;包含chargePlan和delay处理，&#xa;ClearChargePlanStrategy用来设置&#xa;复位更新标志位" style="text;strokeColor=none;fillColor=none;align=center;verticalAlign=middle;rounded=0;labelBackgroundColor=none;" parent="mEOgrYx-svWfFPejbQJb-1" vertex="1">
          <mxGeometry x="485" y="50" width="220" height="50" as="geometry" />
        </mxCell>
        <mxCell id="SutCJiev2bX-LbydkIWs-0" value="" style="endArrow=none;html=1;rounded=0;entryX=0.473;entryY=1;entryDx=0;entryDy=0;entryPerimeter=0;" parent="mEOgrYx-svWfFPejbQJb-1" target="mEOgrYx-svWfFPejbQJb-71" edge="1">
          <mxGeometry width="50" height="50" relative="1" as="geometry">
            <mxPoint x="570" y="190" as="sourcePoint" />
            <mxPoint x="620" y="140" as="targetPoint" />
          </mxGeometry>
        </mxCell>
        <mxCell id="SutCJiev2bX-LbydkIWs-1" value="" style="shape=mxgraph.bpmn.data;labelPosition=center;verticalLabelPosition=bottom;align=center;verticalAlign=top;whiteSpace=wrap;size=13;html=1;fillColor=#fff2cc;strokeColor=#d6b656;" parent="mEOgrYx-svWfFPejbQJb-1" vertex="1">
          <mxGeometry x="324" y="930" width="180" height="80" as="geometry" />
        </mxCell>
        <mxCell id="SutCJiev2bX-LbydkIWs-2" value="&lt;font face=&quot;Helvetica&quot; style=&quot;text-align: center&quot;&gt;&lt;span style=&quot;font-size: 11px&quot;&gt;判断&lt;/span&gt;&lt;/font&gt;&lt;span style=&quot;font-size: 11px ; text-align: center ; font-family: &amp;#34;helvetica&amp;#34;&quot;&gt;sendChargePlan和返回的chargeList中对应的chargePlanId的chargePlan是否相同&lt;/span&gt;" style="text;strokeColor=none;fillColor=none;align=left;verticalAlign=middle;rounded=0;whiteSpace=wrap;html=1;" parent="mEOgrYx-svWfFPejbQJb-1" vertex="1">
          <mxGeometry x="329" y="939" width="175" height="62" as="geometry" />
        </mxCell>
        <mxCell id="SutCJiev2bX-LbydkIWs-5" value="" style="endArrow=none;html=1;rounded=0;" parent="mEOgrYx-svWfFPejbQJb-1" edge="1">
          <mxGeometry width="50" height="50" relative="1" as="geometry">
            <mxPoint x="250" y="940" as="sourcePoint" />
            <mxPoint x="320" y="970" as="targetPoint" />
          </mxGeometry>
        </mxCell>
      </root>
    </mxGraphModel>
  </diagram>
</mxfile>
